#N canvas 832 343 750 708 10;
#X obj 96 366 *~;
#X obj 111 277 vsl 15 80 0.001 1 1 0 empty empty dry 0 -9 0 10 -262144
-1 -1 7900 1;
#X obj 236 377 delread4~ d1;
#X floatatom 236 316 5 0 0 0 delay_time - -;
#N canvas 438 190 614 846 processing 0;
#X obj 28 12 inlet~ sig;
#X obj 40 791 outlet~ sig;
#X obj 92 604 vsl 15 80 30 20000 1 0 empty empty fc_lop 0 -9 0 10 -262144
-1 -1 6843 1;
#X floatatom 54 692 8 0 0 0 - - -;
#X obj 150 604 vsl 15 80 30 20000 1 0 empty empty fc_hip 0 -9 0 10
-262144 -1 -1 1866 1;
#X floatatom 149 693 8 0 0 0 - - -;
#X text 286 49 Ideen:;
#X text 295 86 - Kompressor/Limiter;
#X text 295 103 - Verzerrer;
#X text 296 118 - einfaches reverb;
#X text 297 67 - resonanzfilter lp/hp/bp/br;
#X text 297 132 - auflösung veringern;
#X obj 39 462 clip~ -1 1;
#X text 109 463 schnelle Lösung derweil...;
#X obj 39 753 hip~ 50;
#X obj 39 727 lop~ 15000;
#X obj 87 560 r \$0/fc_lop;
#X obj 161 560 r \$0/fc_hip;
#X connect 0 0 12 0;
#X connect 2 0 3 0;
#X connect 2 0 15 1;
#X connect 4 0 5 0;
#X connect 4 0 14 1;
#X connect 12 0 15 0;
#X connect 14 0 1 0;
#X connect 15 0 14 0;
#X connect 16 0 2 0;
#X connect 17 0 4 0;
#X restore 235 409 pd processing;
#X obj 327 475 *~;
#X obj 342 386 vsl 15 80 0.001 1.2 0 0 empty empty feedback 0 -9 0
10 -262144 -1 -1 3418 1;
#X obj 328 508 s~ feedback_d1;
#X obj 252 196 r~ feedback_d1;
#X floatatom 359 476 5 0 0 0 - - -;
#X floatatom 124 365 5 0 0 0 - - -;
#X obj 235 597 *~;
#X obj 250 508 vsl 15 80 0.01 1 1 0 empty empty wet 0 -9 0 10 -262144
-1 -1 6220 1;
#X floatatom 263 596 5 0 0 0 - - -;
#N canvas 557 124 554 675 read_pointer 0;
#X obj 23 631 outlet~ variable_delay_time;
#X obj 20 13 inlet static_delay_time;
#X obj 145 419 *~;
#X obj 218 211 vsl 15 80 0.01 20 1 0 empty empty detune 0 -9 0 10 -262144
-1 -1 933 1;
#X floatatom 231 299 5 0 0 0 - - -;
#X floatatom 91 290 8 0 0 0 mod_freq - -;
#X obj 218 384 line~;
#X text 368 37 Ideen:;
#X text 383 56 - pitch shifter;
#X obj 91 196 vsl 15 80 0.1 5 1 0 empty empty mod_freq 0 -9 0 10 -262144
-1 -1 311 1;
#X obj 20 62 line~;
#X msg 20 36 \$1 100;
#X msg 218 358 \$1 100;
#X obj 91 313 lfo~ 0.2;
#X obj 215 173 r \$0/detune;
#X obj 92 154 r \$0/mod_freq;
#X connect 1 0 11 0;
#X connect 2 0 0 0;
#X connect 3 0 4 0;
#X connect 3 0 12 0;
#X connect 5 0 13 0;
#X connect 6 0 2 1;
#X connect 9 0 5 0;
#X connect 10 0 0 0;
#X connect 11 0 10 0;
#X connect 12 0 6 0;
#X connect 13 2 2 0;
#X connect 14 0 3 0;
#X connect 15 0 9 0;
#X restore 236 347 pd read_pointer;
#X obj 234 228 delwrite~ d1 800;
#X obj 239 290 hsl 128 15 80 800 1 0 empty empty delay_time -2 -8 0
10 -262144 -1 -1 8763 1;
#X obj 18 12 inlet~ sig;
#X obj 96 670 outlet~;
#X obj 438 22 r delay;
#X obj 438 44 route set get;
#N canvas 1039 372 547 395 msg_handling 0;
#X obj 20 13 inlet set;
#X obj 113 16 inlet get;
#X obj 153 360 outlet messages;
#X obj 20 145 buf dry;
#X obj 153 329 list prepend delay;
#X obj 52 170 buf wet;
#X obj 83 144 buf delay_time;
#X obj 116 170 buf feedback;
#X obj 153 194 buf fc_lop;
#X obj 198 219 buf fc_hip;
#X obj 242 151 buf detune;
#X obj 264 180 buf mod_freq;
#X obj 59 96 route dry wet delay_time feedback fc_lop fc_hip detune
mod_freq;
#X obj 20 52 route dry wet delay_time feedback fc_lop fc_hip detune
mod_freq;
#X connect 0 0 13 0;
#X connect 1 0 12 0;
#X connect 3 0 4 0;
#X connect 4 0 2 0;
#X connect 5 0 4 0;
#X connect 6 0 4 0;
#X connect 7 0 4 0;
#X connect 8 0 4 0;
#X connect 9 0 4 0;
#X connect 10 0 4 0;
#X connect 11 0 4 0;
#X connect 12 0 3 1;
#X connect 12 1 5 1;
#X connect 12 2 6 1;
#X connect 12 3 7 1;
#X connect 12 4 8 1;
#X connect 12 5 9 1;
#X connect 12 6 10 1;
#X connect 12 7 11 1;
#X connect 13 0 3 0;
#X connect 13 1 5 0;
#X connect 13 2 6 0;
#X connect 13 3 7 0;
#X connect 13 4 8 0;
#X connect 13 5 9 0;
#X connect 13 6 10 0;
#X connect 13 7 11 0;
#X restore 475 96 pd msg_handling;
#X obj 475 122 s osc_out;
#X obj 102 242 r \$0/dry;
#X obj 246 256 r \$0/delay_time;
#X obj 348 350 r \$0/feedback;
#X obj 593 44 switch~;
#X obj 593 21 r delay/switch;
#N canvas 140 407 473 665 scaling 0;
#X obj 16 15 inlet set;
#X obj 16 626 s \$0/dry;
#X obj 48 570 s \$0/wet;
#X obj 80 512 s \$0/delay_time;
#X obj 112 415 / 127;
#X obj 112 437 * 1.2;
#X obj 112 462 s \$0/feedback;
#X obj 144 356 mtolog 30 20000;
#X obj 80 487 mtolin 80 800;
#X obj 144 379 s \$0/fc_lop;
#X obj 176 299 mtolog 30 20000;
#X obj 176 322 s \$0/fc_hip;
#X obj 208 241 mtolog 0.01 20;
#X obj 208 264 s \$0/detune;
#X obj 240 186 mtolog 0.1 5;
#X obj 240 209 s \$0/mod_freq;
#X obj 16 602 mtolog 0.001 1;
#X obj 48 546 mtolog 0.01 1;
#X obj 16 45 route dry wet delay_time feedback fc_lop fc_hip detune
mod_freq;
#X connect 0 0 18 0;
#X connect 4 0 5 0;
#X connect 5 0 6 0;
#X connect 7 0 9 0;
#X connect 8 0 3 0;
#X connect 10 0 11 0;
#X connect 12 0 13 0;
#X connect 14 0 15 0;
#X connect 16 0 1 0;
#X connect 17 0 2 0;
#X connect 18 0 16 0;
#X connect 18 1 17 0;
#X connect 18 2 8 0;
#X connect 18 3 4 0;
#X connect 18 4 7 0;
#X connect 18 5 10 0;
#X connect 18 6 12 0;
#X connect 18 7 14 0;
#X restore 438 162 pd scaling;
#X obj 244 477 r \$0/wet;
#X connect 0 0 18 0;
#X connect 1 0 0 1;
#X connect 1 0 10 0;
#X connect 2 0 4 0;
#X connect 3 0 14 0;
#X connect 4 0 5 0;
#X connect 4 0 11 0;
#X connect 5 0 7 0;
#X connect 6 0 5 1;
#X connect 6 0 9 0;
#X connect 8 0 15 0;
#X connect 11 0 18 0;
#X connect 12 0 11 1;
#X connect 12 0 13 0;
#X connect 14 0 2 0;
#X connect 16 0 3 0;
#X connect 17 0 15 0;
#X connect 17 0 0 0;
#X connect 19 0 20 0;
#X connect 20 0 21 0;
#X connect 20 0 28 0;
#X connect 20 1 21 1;
#X connect 21 0 22 0;
#X connect 23 0 1 0;
#X connect 24 0 16 0;
#X connect 25 0 6 0;
#X connect 27 0 26 0;
#X connect 29 0 12 0;
