#N canvas 780 407 587 521 10;
#X obj 290 178 * 2;
#X obj 327 263 abs;
#X text 335 336 triangle;
#X obj 290 151 - 0.5;
#X obj 327 315 * 2;
#X obj 327 288 - 0.5;
#X obj 442 186 cos;
#X obj 442 164 * 6.28319;
#X text 404 201 sine;
#X text 258 186 saw;
#X obj 30 370 * 999999;
#X obj 30 396 clip -1 1;
#X obj 24 16 inlet freq;
#X text 130 17 lfo <freq> <unsig_time>;
#X text 353 17 An LFO for control rate;
#X obj 23 485 outlet square;
#X obj 184 488 outlet saw;
#X obj 299 488 outlet triangle;
#X obj 442 489 outlet sine;
#X obj 291 90 phasor~ \$1;
#X obj 290 126 unsig~ \$2;
#X connect 0 0 1 0;
#X connect 0 0 16 0;
#X connect 1 0 5 0;
#X connect 3 0 0 0;
#X connect 4 0 10 0;
#X connect 4 0 17 0;
#X connect 5 0 4 0;
#X connect 6 0 18 0;
#X connect 7 0 6 0;
#X connect 10 0 11 0;
#X connect 11 0 15 0;
#X connect 12 0 19 0;
#X connect 19 0 20 0;
#X connect 20 0 3 0;
#X connect 20 0 7 0;
