#N canvas 1285 449 587 521 10;
#X text 335 336 triangle;
#X text 404 201 sine;
#X text 258 186 saw;
#X obj 291 90 phasor~ \$1;
#X text 130 17 lfo <freq>;
#X text 353 17 An LFO...;
#X obj 290 151 -~ 0.5;
#X obj 290 178 *~ 2;
#X obj 327 263 abs~;
#X obj 327 288 -~ 0.5;
#X obj 327 315 *~ 2;
#X obj 30 370 *~ 999999;
#X obj 30 396 clip~ -1 1;
#X obj 23 485 outlet~ square;
#X obj 299 488 outlet~ triangle;
#X obj 442 489 outlet~ sine;
#X obj 24 16 inlet~ freq;
#X obj 458 195 osc~ \$1;
#X obj 461 52 loadbang;
#X msg 461 77 0;
#X obj 184 488 outlet~ ramp;
#X connect 3 0 6 0;
#X connect 6 0 7 0;
#X connect 7 0 8 0;
#X connect 7 0 20 0;
#X connect 8 0 9 0;
#X connect 9 0 10 0;
#X connect 10 0 11 0;
#X connect 10 0 14 0;
#X connect 11 0 12 0;
#X connect 12 0 13 0;
#X connect 16 0 3 0;
#X connect 16 0 17 0;
#X connect 17 0 15 0;
#X connect 18 0 19 0;
#X connect 19 0 17 1;
#X connect 19 0 3 1;
