#N canvas 566 542 491 361 10;
#X obj 9 9 inlet midi_val;
#X obj 9 335 outlet rescaled_val;
#X obj 9 41 / 127;
#X obj 9 249 *;
#X obj 74 129 f \$1;
#X obj 42 129 f \$2;
#X obj 42 213 -;
#X obj 42 74 loadbang;
#X obj 42 97 t b b;
#X text 132 10 mtolog <start_val> <stop_val>;
#X text 131 37 mtolog rescales midi values from 0-127 exponentialy
from a starting value to a stop value;
#X obj 74 153 log;
#X obj 74 173 t f f;
#X obj 9 280 +;
#X obj 42 153 log;
#X obj 9 307 exp;
#X text 273 327 Manuel Planton 2019;
#X connect 0 0 2 0;
#X connect 2 0 3 0;
#X connect 3 0 13 0;
#X connect 4 0 11 0;
#X connect 5 0 14 0;
#X connect 6 0 3 1;
#X connect 7 0 8 0;
#X connect 8 0 5 0;
#X connect 8 1 4 0;
#X connect 11 0 12 0;
#X connect 12 0 6 1;
#X connect 12 1 13 1;
#X connect 13 0 15 0;
#X connect 14 0 6 0;
#X connect 15 0 1 0;
