#N canvas 70 226 1014 784 10;
#X floatatom 304 406 0 0 120 3 level_db - -;
#X floatatom 320 354 0 0 100 3 liveness - -;
#X floatatom 397 397 4 0 5000 3 crossover_f - -;
#X floatatom 481 384 0 0 100 3 hf_damping - -;
#X obj 322 541 rev3~ 100 90 3000 20;
#X obj 17 649 *~;
#X obj 34 560 vsl 15 80 0.0001 1 1 0 empty empty dry 0 -9 0 10 -262144
-1 -1 7312 1;
#X obj 204 661 *~;
#X obj 174 521 vsl 15 80 0.0001 1 1 0 empty empty wet 0 -9 0 10 -262144
-1 -1 7900 1;
#X text 649 531 TODO: soft clipping intern im rev3;
#X text 653 550 TODO: Predelay?;
#X obj 12 12 inlet~ sig;
#X obj 18 709 outlet~ l;
#X obj 205 713 outlet~ r;
#X obj 455 8 r reverb;
#X obj 130 75 route dry wet rev_in_lvl liveness fc hf_damp;
#X obj 164 661 *~;
#X obj 455 31 route set get;
#X obj 35 522 / 127;
#X obj 174 470 / 127;
#X obj 273 300 mtolin 0 100;
#X obj 311 327 mtolin 0 100;
#X obj 481 359 mtolin 0 100;
#X obj 397 308 vsl 15 80 20 18000 1 0 empty empty fc 0 -9 0 10 -262144
-1 -1 0 1;
#X obj 395 275 / 127;
#X obj 514 146 buf dry;
#X obj 573 126 buf wet;
#X obj 623 178 buf rev_in_lvl;
#X obj 675 133 buf liveness;
#X obj 738 164 buf fc;
#X obj 793 132 buf hf_damp;
#X obj 701 372 list prepend reverb;
#X obj 701 398 s osc_out;
#X obj 933 165 switch~;
#X obj 618 34 route dry wet rev_in_lvl liveness fc hf_damp on;
#X obj 552 78 route dry wet rev_in_lvl liveness fc hf_damp on;
#X obj 851 166 buf on;
#X text 934 185 on/off;
#X connect 0 0 4 2;
#X connect 1 0 4 3;
#X connect 2 0 4 4;
#X connect 3 0 4 5;
#X connect 4 0 16 0;
#X connect 4 1 7 0;
#X connect 4 2 16 0;
#X connect 4 3 7 0;
#X connect 5 0 13 0;
#X connect 5 0 12 0;
#X connect 6 0 5 1;
#X connect 7 0 13 0;
#X connect 8 0 7 1;
#X connect 8 0 16 1;
#X connect 11 0 4 1;
#X connect 11 0 4 0;
#X connect 11 0 5 0;
#X connect 14 0 17 0;
#X connect 15 0 18 0;
#X connect 15 1 19 0;
#X connect 15 2 20 0;
#X connect 15 3 21 0;
#X connect 15 4 24 0;
#X connect 15 5 22 0;
#X connect 16 0 12 0;
#X connect 17 0 15 0;
#X connect 17 0 35 0;
#X connect 17 1 34 0;
#X connect 18 0 6 0;
#X connect 19 0 8 0;
#X connect 20 0 0 0;
#X connect 21 0 1 0;
#X connect 22 0 3 0;
#X connect 23 0 2 0;
#X connect 24 0 23 0;
#X connect 25 0 31 0;
#X connect 26 0 31 0;
#X connect 27 0 31 0;
#X connect 28 0 31 0;
#X connect 29 0 31 0;
#X connect 30 0 31 0;
#X connect 31 0 32 0;
#X connect 34 0 25 1;
#X connect 34 1 26 1;
#X connect 34 2 27 1;
#X connect 34 3 28 1;
#X connect 34 4 29 1;
#X connect 34 5 30 1;
#X connect 34 6 36 1;
#X connect 35 0 25 0;
#X connect 35 1 26 0;
#X connect 35 2 27 0;
#X connect 35 3 28 0;
#X connect 35 4 29 0;
#X connect 35 5 30 0;
#X connect 35 6 36 0;
#X connect 35 6 33 0;
#X connect 36 0 31 0;
