#N canvas 1128 210 566 740 10;
#X obj 12 8 loadbang;
#X obj 223 120 netreceive -u -b 7110;
#X obj 223 146 oscparse;
#X obj 223 172 list trim;
#N canvas 49 541 788 513 effects 1;
#X obj 269 458 dac~;
#X obj 260 422 *~;
#X obj 410 339 vsl 15 80 0.0001 1 1 0 empty empty vol 0 -9 0 10 -262144
-1 -1 7900 1;
#X obj 261 12 adc~;
#X obj 295 428 *~;
#X obj 11 253 throw~ left;
#X obj 10 274 throw~ right;
#X obj 259 376 catch~ left;
#X obj 294 398 catch~ right;
#X obj 27 15 inlet osc_msgs;
#X obj 63 65 s reverb;
#X obj 100 87 s delay;
#X obj 136 65 s lop;
#X obj 173 87 s hip;
#X obj 27 38 route main reverb delay lop hip;
#X obj 27 86 s main;
#X obj 468 78 r main;
#X obj 468 130 route in_vol out_vol;
#X obj 468 100 route set get;
#X obj 631 131 route in_vol out_vol;
#X obj 260 134 *~ 1;
#X obj 281 47 vsl 15 80 0.0001 1 1 0 empty empty vol 0 -9 0 10 -262144
-1 -1 7900 1;
#X obj 260 158 s~ sig_in;
#X obj 11 205 r~ sig_in;
#X obj 603 314 s osc_out;
#X obj 12 229 abs/reverb;
#X obj 301 13 / 127;
#X obj 411 297 / 127;
#X obj 550 178 abs/buf in_vol;
#X obj 603 201 abs/buf out_vol;
#X obj 603 285 list prepend main;
#X obj 98 205 r~ sig_in;
#X obj 98 257 throw~ left;
#X obj 111 278 throw~ right;
#X obj 98 228 abs/delay;
#X obj 44 357 loadbang;
#X msg 44 380 0;
#X obj 44 403 s reverb/switch;
#X msg 25 425 1;
#X obj 25 448 s delay/switch;
#X text 75 382 TODO: change this;
#X connect 1 0 0 0;
#X connect 2 0 1 1;
#X connect 2 0 4 1;
#X connect 3 0 20 0;
#X connect 4 0 0 1;
#X connect 7 0 1 0;
#X connect 8 0 4 0;
#X connect 9 0 14 0;
#X connect 14 0 15 0;
#X connect 14 1 10 0;
#X connect 14 2 11 0;
#X connect 14 3 12 0;
#X connect 14 4 13 0;
#X connect 16 0 18 0;
#X connect 17 0 26 0;
#X connect 17 0 28 0;
#X connect 17 1 27 0;
#X connect 17 1 29 0;
#X connect 18 0 17 0;
#X connect 18 1 19 0;
#X connect 19 0 28 1;
#X connect 19 1 29 1;
#X connect 20 0 22 0;
#X connect 21 0 20 1;
#X connect 23 0 25 0;
#X connect 25 0 5 0;
#X connect 25 1 6 0;
#X connect 26 0 21 0;
#X connect 27 0 2 0;
#X connect 28 0 30 0;
#X connect 29 0 30 0;
#X connect 30 0 24 0;
#X connect 31 0 34 0;
#X connect 34 0 32 0;
#X connect 34 0 33 0;
#X connect 35 0 36 0;
#X connect 35 0 38 0;
#X connect 36 0 37 0;
#X connect 38 0 39 0;
#X restore 223 313 pd effects;
#X msg 12 31 \; pd dsp 1;
#X obj 228 423 r osc_out;
#X obj 375 624 netsend -u -b;
#X floatatom 375 655 5 0 0 0 - - -;
#X obj 228 492 list prepend send;
#X obj 228 517 list trim;
#X obj 173 547 oscparse;
#X msg 375 355 connect 127.0.0.1 7111;
#X obj 228 466 oscformat menu;
#X obj 314 225 print osc_in;
#X obj 169 576 print osc_out;
#X obj 375 297 route connect;
#X obj 223 196 route pd;
#X text 397 337 connect to menu;
#X text 53 313 FX ----------------------->;
#N canvas 155 284 457 304 presets 0;
#X obj 6 10 inlet bng;
#X obj 6 35 trigger b b;
#X msg 6 67 \; reverb set dry 64 \; reverb set wet 127 \; main set
out_vol 127 \; main set in_vol 127;
#X msg 155 63 \; delay set in_vol 127 \; delay set out_vol 127 \; delay
set dry 127 \; delay set wet 100 \; delay set delay_time 55 \; delay
set feedback 55 \; delay set fc_lop 110 \; delay set fc_hip 30 \; delay
set detune 15 \; delay set mod_freq 5;
#X connect 0 0 1 0;
#X connect 1 0 2 0;
#X connect 1 1 3 0;
#X restore 80 45 pd presets;
#X connect 0 0 5 0;
#X connect 0 0 20 0;
#X connect 1 0 2 0;
#X connect 2 0 3 0;
#X connect 3 0 17 0;
#X connect 6 0 13 0;
#X connect 7 0 8 0;
#X connect 9 0 10 0;
#X connect 10 0 7 0;
#X connect 11 0 15 0;
#X connect 12 0 7 0;
#X connect 13 0 9 0;
#X connect 13 0 11 0;
#X connect 16 0 12 0;
#X connect 17 0 14 0;
#X connect 17 0 16 0;
#X connect 17 0 4 0;
