#N canvas 1147 220 566 740 10;
#X obj 12 8 loadbang;
#X obj 223 140 netreceive -u -b 7110;
#X obj 223 166 oscparse;
#X obj 223 192 list trim;
#N canvas 110 453 788 491 effects 1;
#X obj 269 458 dac~;
#X obj 260 422 *~;
#X obj 410 339 vsl 15 80 0 1 0 0 empty empty vol 0 -9 0 10 -262144
-1 -1 7900 1;
#X obj 261 12 adc~;
#X obj 260 234 reverb;
#X obj 295 428 *~;
#X obj 259 258 throw~ left;
#X obj 294 280 throw~ right;
#X obj 259 376 catch~ left;
#X obj 294 398 catch~ right;
#X obj 27 15 inlet osc_msgs;
#X obj 63 65 s reverb;
#X obj 100 87 s delay;
#X obj 136 65 s lop;
#X obj 173 87 s hip;
#X obj 659 200 f;
#X obj 27 38 route main reverb delay lop hip;
#X obj 27 86 s main;
#X obj 468 78 r main;
#X obj 468 130 route in_vol out_vol;
#X obj 468 100 route set get;
#X obj 631 131 route in_vol out_vol;
#X obj 260 134 *~ 1;
#X obj 631 199 f;
#X obj 281 47 vsl 15 80 0 1 0 0 empty empty vol 0 -9 0 10 -262144 -1
-1 3950 1;
#X obj 260 158 s~ sig_in;
#X obj 259 210 r~ sig_in;
#X obj 655 320 s osc_out;
#X obj 600 300 print;
#X obj 604 172 t b b;
#X obj 603 263 pack s f;
#X obj 603 236 symbol in_vol;
#X text 436 356 Wie sollen die Werte zwischengespeichert werden?;
#X connect 1 0 0 0;
#X connect 2 0 1 1;
#X connect 2 0 5 1;
#X connect 3 0 22 0;
#X connect 4 0 6 0;
#X connect 4 1 7 0;
#X connect 5 0 0 1;
#X connect 8 0 1 0;
#X connect 9 0 5 0;
#X connect 10 0 16 0;
#X connect 16 0 17 0;
#X connect 16 1 11 0;
#X connect 16 2 12 0;
#X connect 16 3 13 0;
#X connect 16 4 14 0;
#X connect 18 0 20 0;
#X connect 19 0 24 0;
#X connect 19 0 23 1;
#X connect 19 1 2 0;
#X connect 19 1 15 1;
#X connect 20 0 19 0;
#X connect 20 1 21 0;
#X connect 21 0 29 0;
#X connect 21 1 15 0;
#X connect 22 0 25 0;
#X connect 23 0 30 1;
#X connect 24 0 22 1;
#X connect 26 0 4 0;
#X connect 29 0 31 0;
#X connect 29 1 23 0;
#X connect 30 0 28 0;
#X connect 31 0 30 0;
#X restore 223 252 pd effects;
#X text 171 333 bei feedback [change] für werte der effekte verwenden
;
#X msg 48 73 reverb set dry 0.5 \; reverb set wet 1 \; main set out_vol
1;
#X msg 12 31 \; pd dsp 1;
#X msg 47 185 main set in_vol 0.5;
#X msg 47 215 main get in_vol;
#X obj 79 372 r osc_out;
#X obj 80 405 print osc_out;
#X connect 0 0 7 0;
#X connect 0 0 6 0;
#X connect 1 0 2 0;
#X connect 2 0 3 0;
#X connect 3 0 4 0;
#X connect 6 0 4 0;
#X connect 8 0 4 0;
#X connect 9 0 4 0;
#X connect 10 0 11 0;
