#N canvas 956 140 490 615 10;
#X obj 58 79 adc~;
#X obj 284 529 dac~;
#X obj 288 499 *~;
#X obj 305 410 vsl 15 80 0 1 0 0 empty empty vol 0 -9 0 10 -262144
-1 -1 7900 1;
#X floatatom 183 197 0 0 120 0 - - -;
#X text 224 197 level \, dB;
#X floatatom 218 219 0 0 100 0 - - -;
#X text 259 219 liveness \, 0-100;
#X floatatom 253 243 4 0 5000 0 - - -;
#X floatatom 288 266 0 0 100 0 - - -;
#X text 301 241 crossover frequency \, Hz.;
#X text 324 268 HF damping \, percent;
#X obj 113 292 rev3~ 100 90 3000 20;
#X obj 64 421 *~;
#X obj 81 332 vsl 15 80 0 1 0 0 empty empty dry 0 -9 0 10 -262144 -1
-1 4400 1;
#X obj 184 428 *~;
#X obj 201 339 vsl 15 80 0 1 0 0 empty empty wet 0 -9 0 10 -262144
-1 -1 7900 1;
#X text 266 341 TODO: soft clipping intern im rev3;
#X text 270 360 TODO: Predelay?;
#X obj 201 17 loadbang;
#X obj 339 404 r vol;
#X obj 226 319 r wet;
#X obj 18 287 r dry;
#X msg 201 40 \; pd dsp 1 \; dry 0.5 \; wet 1 \; vol 1;
#X connect 0 0 12 0;
#X connect 0 0 13 0;
#X connect 0 0 12 1;
#X connect 2 0 1 0;
#X connect 2 0 1 1;
#X connect 3 0 2 1;
#X connect 4 0 12 2;
#X connect 6 0 12 3;
#X connect 8 0 12 4;
#X connect 9 0 12 5;
#X connect 12 0 15 0;
#X connect 12 2 15 0;
#X connect 13 0 2 0;
#X connect 14 0 13 1;
#X connect 15 0 2 0;
#X connect 16 0 15 1;
#X connect 19 0 23 0;
#X connect 20 0 3 0;
#X connect 21 0 16 0;
#X connect 22 0 14 0;
