#N canvas 528 394 850 572 10;
#X floatatom 306 263 0 0 120 0 - - -;
#X text 272 243 level \, dB;
#X floatatom 341 238 0 0 100 0 - - -;
#X text 319 218 liveness \, 0-100;
#X floatatom 380 261 4 0 5000 0 - - -;
#X floatatom 425 209 0 0 100 0 - - -;
#X text 379 243 crossover frequency \, Hz.;
#X text 427 189 HF damping \, percent;
#X obj 320 375 rev3~ 100 90 3000 20;
#X obj 15 483 *~;
#X obj 32 394 vsl 15 80 0 1 0 0 empty empty dry 0 -9 0 10 -262144 -1
-1 0 1;
#X obj 202 495 *~;
#X obj 172 355 vsl 15 80 0 1 0 0 empty empty wet 0 -9 0 10 -262144
-1 -1 0 1;
#X text 610 398 TODO: soft clipping intern im rev3;
#X text 614 417 TODO: Predelay?;
#X obj 12 12 inlet~ sig;
#X obj 16 543 outlet~ l;
#X obj 203 547 outlet~ r;
#X obj 130 13 r reverb;
#X obj 130 75 route dry wet rev_in_lvl liveness fc hf_damp;
#X obj 162 495 *~;
#X obj 503 141 f;
#X obj 546 141 f;
#X obj 590 142 f;
#X obj 633 143 f;
#X obj 677 144 f;
#X obj 720 144 f;
#X obj 130 36 route set get;
#X obj 503 18 route dry wet rev_in_lvl liveness fc hf_damp;
#X connect 0 0 8 2;
#X connect 2 0 8 3;
#X connect 4 0 8 4;
#X connect 5 0 8 5;
#X connect 8 0 20 0;
#X connect 8 1 11 0;
#X connect 8 2 20 0;
#X connect 8 3 11 0;
#X connect 9 0 17 0;
#X connect 9 0 16 0;
#X connect 10 0 9 1;
#X connect 11 0 17 0;
#X connect 12 0 11 1;
#X connect 12 0 20 1;
#X connect 15 0 8 1;
#X connect 15 0 8 0;
#X connect 15 0 9 0;
#X connect 18 0 27 0;
#X connect 19 0 10 0;
#X connect 19 0 21 1;
#X connect 19 1 12 0;
#X connect 19 1 22 1;
#X connect 19 2 0 0;
#X connect 19 2 23 1;
#X connect 19 3 2 0;
#X connect 19 3 24 1;
#X connect 19 4 25 1;
#X connect 19 4 4 0;
#X connect 19 5 26 1;
#X connect 19 5 5 0;
#X connect 20 0 16 0;
#X connect 27 0 19 0;
#X connect 27 1 28 0;
#X connect 28 0 21 0;
#X connect 28 1 22 0;
#X connect 28 2 23 0;
#X connect 28 3 24 0;
#X connect 28 4 25 0;
#X connect 28 5 26 0;
