#N canvas 1010 161 490 615 10;
#X obj 58 79 adc~;
#X obj 284 529 dac~;
#X obj 288 499 *~;
#X obj 305 410 vsl 15 80 0 1 0 0 empty empty vol 0 -9 0 10 -262144
-1 -1 3400 1;
#X obj 181 279 osc~;
#X floatatom 180 254 5 0 0 0 - - -;
#X connect 2 0 1 0;
#X connect 2 0 1 1;
#X connect 3 0 2 1;
#X connect 4 0 2 0;
#X connect 5 0 4 0;
